# xmcd CD database file
#
# Track frame offsets:
#	150
#	17761
#	34979
#	48924
#	65240
#	79931
#	99583
#	117131
#	130858
#	144666
#	160499
#	181527
#
# Disc length: 2657 seconds
#
# Revision: 0
# Processed by: cddbd v1.5.2PL0 Copyright (c) Steve Scherf et al.
# Submitted via: CDex 1.51
#
DISCID=a20a5f0c
DTITLE=Waits, Tom Waits - Closing Time - Waits, Tom Waits - Closing Time
DYEAR=1900
DGENRE=Blues
TTITLE0=ol´ 55
TTITLE1=i hope that i don´t fall in love with you
TTITLE2=virginia avenue
TTITLE3=old shoes (&picture postcards)
TTITLE4=midnight lullaby
TTITLE5=martha
TTITLE6=rosie
TTITLE7=lonely
TTITLE8=ice cream man
TTITLE9=little trip to heaven(on the wings of y....
TTITLE10=grapefruit moon
TTITLE11=closing time
EXTD=
EXTT0=
EXTT1=
EXTT2=
EXTT3=
EXTT4=
EXTT5=
EXTT6=
EXTT7=
EXTT8=
EXTT9=
EXTT10=
EXTT11=
PLAYORDER=
